# xmcd
#
# Track frame offsets: 
#        150
#        15891
#        27071
#        45623
#        53297
#        69557
#        81754
#        95785
#        111966
#        126748
#        139074
#        154714
#
# Disc length: 2374 seconds
#
# Revision: 0
# Processed by: cddbd v1.5.2PL0 Copyright (c) Steve Scherf et al.
# Submitted via: ExactAudioCopy v0.99pb5
#
DISCID=9609440c
DTITLE=The Deslondes - The Deslondes
DYEAR=2015
DGENRE=Country
TTITLE0=Fought the Blues and Won
TTITLE1=Those Were (Could've Been) the Days
TTITLE2=Heavenly Home
TTITLE3=Less Honkin' More Tonkin'
TTITLE4=Low Down Soul
TTITLE5=The real Deal
TTITLE6=Still Someone
TTITLE7=Time to Believe In
TTITLE8=Louise
TTITLE9=Simple and True
TTITLE10=Same Blood As Mine
TTITLE11=Out on the Rise
EXTD=
EXTT0=
EXTT1=
EXTT2=
EXTT3=
EXTT4=
EXTT5=
EXTT6=
EXTT7=
EXTT8=
EXTT9=
EXTT10=
EXTT11=
PLAYORDER=
